<svg width="16" height="14" viewBox="0 0 16 14" fill="none" xmlns="http://www.w3.org/2000/svg">
    <path fill-rule="evenodd" clip-rule="evenodd" d="M8.73506 0.797545C9.44822 0.448472 10.0703 0.333495 11.0354 0.333507C13.5053 0.343735 15.3333 2.42673 15.3333 5.08008C15.3333 7.10533 14.2041 9.06168 12.1007 10.9534C10.9967 11.9464 9.58708 12.929 8.57756 13.4518L7.99996 13.7509L7.42236 13.4518C6.41284 12.929 5.00322 11.9464 3.89919 10.9534C1.79585 9.06168 0.666626 7.10533 0.666626 5.08008C0.666626 2.39834 2.47758 0.333496 4.96966 0.333496C5.90015 0.333496 6.55417 0.459346 7.28117 0.818919C7.53428 0.944108 7.77209 1.0926 7.99327 1.264C8.22332 1.08242 8.47103 0.926783 8.73506 0.797545Z" fill="#FFE082"/>
</svg>
