<svg width="24" height="18" viewBox="0 0 24 18" fill="none" xmlns="http://www.w3.org/2000/svg">
    <path fill-rule="evenodd" clip-rule="evenodd" d="M11.9757 4C11.9757 1.75576 13.5548 0 15.9757 0C18.3899 0 19.9757 1.92158 19.9757 4.2C19.9757 7.47961 18.1938 9 15.9757 9C13.7366 9 11.9757 7.42737 11.9757 4ZM10.7243 11.9177C11.6598 11.3439 13.4508 11 15.9757 11C19.8315 11 21.9757 11.8021 21.9757 13V14H23.9513C24.0001 13.5 24.0158 13.1213 23.9513 12.5756C23.652 10.0449 20.6202 9 15.9757 9C14.4192 9 13.0438 9.11736 11.8917 9.36867C11.9468 9.00735 11.9757 8.61796 11.9757 8.2C11.9757 5.92158 10.3899 4 7.9757 4C5.5548 4 3.9757 5.75576 3.9757 8C3.9757 11.4274 5.73657 13 7.9757 13C3.33125 13 0.299393 14.0449 0.000106558 16.5756L0 18H1.9757V17C1.9757 15.8021 4.1199 15 7.9757 15C11.8315 15 13.9757 15.8021 13.9757 17V18H15.9513C16.0001 17.5 16.0158 17.1213 15.9513 16.5756C15.652 14.0449 12.6202 13 7.9757 13C9.0428 13 10.0089 12.6481 10.7243 11.9177ZM13.9757 4C13.9757 6.26926 14.7939 7 15.9757 7C17.1534 7 17.9757 6.29839 17.9757 4.2C17.9757 2.95042 17.1914 2 15.9757 2C14.7094 2 13.9757 2.81582 13.9757 4ZM7.9757 11C6.79391 11 5.9757 10.2693 5.9757 8C5.9757 6.81582 6.70944 6 7.9757 6C9.19136 6 9.9757 6.95042 9.9757 8.2C9.9757 10.2984 9.15341 11 7.9757 11Z" fill="#BDBDBD"/>
</svg>
