<svg width="40" height="40" viewBox="0 0 40 40" fill="none" xmlns="http://www.w3.org/2000/svg">
    <mask id="mask0" mask-type="alpha" maskUnits="userSpaceOnUse" x="8" y="8" width="24" height="24">
        <path fill-rule="evenodd" clip-rule="evenodd" d="M27 18C27 13.9408 24.7616 11.1235 21.8654 10.2777C21.7605 10.0064 21.5948 9.7541 21.3695 9.54243C20.5997 8.81919 19.4003 8.81919 18.6305 9.54243C18.4057 9.75364 18.2402 10.0053 18.1353 10.2759C15.2354 11.118 13 13.9292 13 18C13 20.6339 12.469 22.1098 11.486 23.1793C11.3216 23.3582 10.8763 23.7678 10.5747 24.0453L10.5747 24.0453L10.5746 24.0453L10.5745 24.0454C10.4319 24.1766 10.3214 24.2783 10.288 24.3119L10 24.604V28.0141H16.088C16.2938 29.0761 16.8701 29.7867 17.9122 30.4226C19.1941 31.2049 20.8059 31.2049 22.0878 30.4226C23.0075 29.8614 23.6241 28.9989 23.8743 28.0141H30V24.604L29.712 24.3119C29.6817 24.2812 29.5757 24.1834 29.437 24.0555C29.1363 23.7781 28.6823 23.3592 28.5154 23.1769C27.5317 22.1024 27 20.6246 27 18ZM21.7367 28.0141H18.1786C18.3199 28.2769 18.5607 28.4754 18.954 28.7154C19.5963 29.1073 20.4037 29.1073 21.046 28.7154C21.3434 28.5339 21.5758 28.2937 21.7367 28.0141ZM27.0402 24.5274C27.2506 24.7573 27.7016 25.1774 28 25.4519V26.0141H12V25.4524C12.2961 25.1811 12.7484 24.7613 12.9585 24.5327C14.2942 23.0794 15 21.1178 15 18C15 14.2199 17.3328 12.0124 20 12.0124C22.6597 12.0124 25 14.2313 25 18C25 21.1078 25.706 23.07 27.0402 24.5274Z" fill="#BDBDBD"/>
    </mask>
    <g mask="url(#mask0)">
        <rect x="8" y="8" width="24" height="24" fill="#BDBDBD"/>
    </g>
 </svg>
